<svg width="161" height="58" viewBox="0 0 161 58" fill="none" xmlns="http://www.w3.org/2000/svg">
<ellipse cx="27.4096" cy="34.8026" rx="22.5904" ry="22.6974" fill="#CD6155"/>
<ellipse cx="7.53012" cy="7.56579" rx="7.53012" ry="7.56579" fill="#CD6155"/>
<path d="M64.7773 37.0586H61.2031V34.5879H64.7773C65.3047 34.5879 65.7279 34.5 66.0469 34.3242C66.3724 34.1484 66.61 33.9076 66.7598 33.6016C66.916 33.2891 66.9941 32.9375 66.9941 32.5469C66.9941 32.1432 66.916 31.7689 66.7598 31.4238C66.61 31.0723 66.3724 30.7891 66.0469 30.5742C65.7279 30.3594 65.3047 30.252 64.7773 30.252H62.3555V42H59.1719V27.7812H64.7773C65.9102 27.7812 66.8802 27.9863 67.6875 28.3965C68.5013 28.8066 69.123 29.3698 69.5527 30.0859C69.9889 30.7956 70.207 31.6094 70.207 32.5273C70.207 33.4453 69.9889 34.2428 69.5527 34.9199C69.123 35.597 68.5013 36.1243 67.6875 36.502C66.8802 36.873 65.9102 37.0586 64.7773 37.0586ZM74.9629 27V42H71.916V27H74.9629ZM74.5625 36.3457L73.8008 36.3652C73.8008 35.623 73.8919 34.9427 74.0742 34.3242C74.263 33.6992 74.5299 33.1556 74.875 32.6934C75.2201 32.2311 75.6335 31.873 76.1152 31.6191C76.6035 31.3652 77.1406 31.2383 77.7266 31.2383C78.2474 31.2383 78.7227 31.3132 79.1523 31.4629C79.582 31.6126 79.9531 31.8503 80.2656 32.1758C80.5781 32.5013 80.819 32.9277 80.9883 33.4551C81.1576 33.9824 81.2422 34.6237 81.2422 35.3789V42H78.1758V35.3594C78.1758 34.9102 78.1107 34.5586 77.9805 34.3047C77.8568 34.0508 77.6745 33.8717 77.4336 33.7676C77.1992 33.6634 76.9128 33.6113 76.5742 33.6113C76.1771 33.6113 75.8483 33.6829 75.5879 33.8262C75.3275 33.9629 75.1224 34.1549 74.9727 34.4023C74.8229 34.6497 74.7155 34.9395 74.6504 35.2715C74.5918 35.6035 74.5625 35.9616 74.5625 36.3457ZM82.7949 36.8242V36.6191C82.7949 35.8444 82.9056 35.1315 83.127 34.4805C83.3483 33.8229 83.6738 33.2533 84.1035 32.7715C84.5332 32.2897 85.0605 31.9154 85.6855 31.6484C86.3105 31.375 87.0267 31.2383 87.834 31.2383C88.6543 31.2383 89.377 31.375 90.002 31.6484C90.6335 31.9154 91.1641 32.2897 91.5938 32.7715C92.0234 33.2533 92.349 33.8229 92.5703 34.4805C92.7917 35.1315 92.9023 35.8444 92.9023 36.6191V36.8242C92.9023 37.5924 92.7917 38.3053 92.5703 38.9629C92.349 39.6139 92.0234 40.1836 91.5938 40.6719C91.1641 41.1536 90.6367 41.528 90.0117 41.7949C89.3867 42.0618 88.6673 42.1953 87.8535 42.1953C87.0462 42.1953 86.3268 42.0618 85.6953 41.7949C85.0638 41.528 84.5332 41.1536 84.1035 40.6719C83.6738 40.1836 83.3483 39.6139 83.127 38.9629C82.9056 38.3053 82.7949 37.5924 82.7949 36.8242ZM85.8516 36.6191V36.8242C85.8516 37.2409 85.8841 37.6315 85.9492 37.9961C86.0208 38.3607 86.1348 38.6797 86.291 38.9531C86.4473 39.2266 86.6523 39.4414 86.9062 39.5977C87.1667 39.7474 87.4824 39.8223 87.8535 39.8223C88.2246 39.8223 88.5371 39.7474 88.791 39.5977C89.0449 39.4414 89.25 39.2266 89.4062 38.9531C89.5625 38.6797 89.6732 38.3607 89.7383 37.9961C89.8099 37.6315 89.8457 37.2409 89.8457 36.8242V36.6191C89.8457 36.209 89.8099 35.8249 89.7383 35.4668C89.6732 35.1022 89.5625 34.7799 89.4062 34.5C89.25 34.2201 89.0417 34.002 88.7812 33.8457C88.5273 33.6895 88.2116 33.6113 87.834 33.6113C87.4694 33.6113 87.1602 33.6895 86.9062 33.8457C86.6523 34.002 86.4473 34.2201 86.291 34.5C86.1348 34.7799 86.0208 35.1022 85.9492 35.4668C85.8841 35.8249 85.8516 36.209 85.8516 36.6191ZM99.875 31.4336V33.5723H93.6055V31.4336H99.875ZM95.041 28.8164H98.0977V38.6895C98.0977 38.9824 98.1335 39.207 98.2051 39.3633C98.2767 39.5195 98.3939 39.6302 98.5566 39.6953C98.7194 39.7539 98.9277 39.7832 99.1816 39.7832C99.3639 39.7832 99.5202 39.7767 99.6504 39.7637C99.7806 39.7507 99.901 39.7344 100.012 39.7148V41.9219C99.7513 42.0065 99.4746 42.0716 99.1816 42.1172C98.8887 42.1693 98.5697 42.1953 98.2246 42.1953C97.5671 42.1953 96.9974 42.0879 96.5156 41.873C96.0404 41.6582 95.6758 41.3197 95.4219 40.8574C95.168 40.3887 95.041 39.7799 95.041 39.0312V28.8164ZM100.627 36.8242V36.6191C100.627 35.8444 100.738 35.1315 100.959 34.4805C101.18 33.8229 101.506 33.2533 101.936 32.7715C102.365 32.2897 102.893 31.9154 103.518 31.6484C104.143 31.375 104.859 31.2383 105.666 31.2383C106.486 31.2383 107.209 31.375 107.834 31.6484C108.465 31.9154 108.996 32.2897 109.426 32.7715C109.855 33.2533 110.181 33.8229 110.402 34.4805C110.624 35.1315 110.734 35.8444 110.734 36.6191V36.8242C110.734 37.5924 110.624 38.3053 110.402 38.9629C110.181 39.6139 109.855 40.1836 109.426 40.6719C108.996 41.1536 108.469 41.528 107.844 41.7949C107.219 42.0618 106.499 42.1953 105.686 42.1953C104.878 42.1953 104.159 42.0618 103.527 41.7949C102.896 41.528 102.365 41.1536 101.936 40.6719C101.506 40.1836 101.18 39.6139 100.959 38.9629C100.738 38.3053 100.627 37.5924 100.627 36.8242ZM103.684 36.6191V36.8242C103.684 37.2409 103.716 37.6315 103.781 37.9961C103.853 38.3607 103.967 38.6797 104.123 38.9531C104.279 39.2266 104.484 39.4414 104.738 39.5977C104.999 39.7474 105.314 39.8223 105.686 39.8223C106.057 39.8223 106.369 39.7474 106.623 39.5977C106.877 39.4414 107.082 39.2266 107.238 38.9531C107.395 38.6797 107.505 38.3607 107.57 37.9961C107.642 37.6315 107.678 37.2409 107.678 36.8242V36.6191C107.678 36.209 107.642 35.8249 107.57 35.4668C107.505 35.1022 107.395 34.7799 107.238 34.5C107.082 34.2201 106.874 34.002 106.613 33.8457C106.359 33.6895 106.044 33.6113 105.666 33.6113C105.301 33.6113 104.992 33.6895 104.738 33.8457C104.484 34.002 104.279 34.2201 104.123 34.5C103.967 34.7799 103.853 35.1022 103.781 35.4668C103.716 35.8249 103.684 36.209 103.684 36.6191ZM123.947 34.4902V40.2227C123.713 40.4896 123.355 40.776 122.873 41.082C122.398 41.388 121.789 41.6517 121.047 41.873C120.305 42.0879 119.419 42.1953 118.391 42.1953C117.46 42.1953 116.613 42.0456 115.852 41.7461C115.09 41.4401 114.436 40.9941 113.889 40.4082C113.342 39.8158 112.919 39.0931 112.619 38.2402C112.326 37.3874 112.18 36.4108 112.18 35.3105V34.4707C112.18 33.3704 112.326 32.3939 112.619 31.541C112.912 30.6882 113.326 29.9688 113.859 29.3828C114.393 28.7904 115.028 28.3411 115.764 28.0352C116.499 27.7292 117.313 27.5762 118.205 27.5762C119.475 27.5762 120.513 27.7812 121.32 28.1914C122.128 28.5951 122.74 29.1549 123.156 29.8711C123.579 30.5872 123.84 31.4108 123.938 32.3418H120.871C120.806 31.8665 120.676 31.4564 120.48 31.1113C120.292 30.7663 120.021 30.5026 119.67 30.3203C119.318 30.1315 118.863 30.0371 118.303 30.0371C117.854 30.0371 117.447 30.1315 117.082 30.3203C116.724 30.5026 116.421 30.7793 116.174 31.1504C115.926 31.5215 115.738 31.9837 115.607 32.5371C115.477 33.084 115.412 33.722 115.412 34.4512V35.3105C115.412 36.0397 115.477 36.681 115.607 37.2344C115.744 37.7878 115.943 38.25 116.203 38.6211C116.464 38.9857 116.792 39.2624 117.189 39.4512C117.593 39.64 118.062 39.7344 118.596 39.7344C119.012 39.7344 119.364 39.7018 119.65 39.6367C119.937 39.5651 120.171 39.4772 120.354 39.373C120.536 39.2624 120.673 39.1615 120.764 39.0703V36.707H118.234V34.4902H123.947ZM129.025 33.8945V42H125.979V31.4336H128.84L129.025 33.8945ZM132.18 31.3555L132.131 34.1973C132.001 34.1777 131.831 34.1615 131.623 34.1484C131.415 34.1289 131.236 34.1191 131.086 34.1191C130.695 34.1191 130.357 34.168 130.07 34.2656C129.79 34.3568 129.556 34.4935 129.367 34.6758C129.185 34.8581 129.048 35.0859 128.957 35.3594C128.866 35.6263 128.82 35.9355 128.82 36.2871L128.244 36.0039C128.244 35.3073 128.312 34.6693 128.449 34.0898C128.586 33.5104 128.785 33.0091 129.045 32.5859C129.305 32.1562 129.624 31.8242 130.002 31.5898C130.38 31.3555 130.809 31.2383 131.291 31.2383C131.447 31.2383 131.607 31.248 131.77 31.2676C131.932 31.2871 132.069 31.3164 132.18 31.3555ZM138.215 42.1953C137.375 42.1953 136.623 42.0618 135.959 41.7949C135.295 41.528 134.732 41.1602 134.27 40.6914C133.814 40.2161 133.465 39.6693 133.225 39.0508C132.984 38.4323 132.863 37.7715 132.863 37.0684V36.6973C132.863 35.9095 132.974 35.1836 133.195 34.5195C133.417 33.8555 133.739 33.2793 134.162 32.791C134.592 32.2962 135.119 31.9154 135.744 31.6484C136.369 31.375 137.082 31.2383 137.883 31.2383C138.632 31.2383 139.299 31.362 139.885 31.6094C140.471 31.8503 140.965 32.1986 141.369 32.6543C141.773 33.1035 142.079 33.6471 142.287 34.2852C142.502 34.9167 142.609 35.6263 142.609 36.4141V37.6641H134.094V35.7012H139.621V35.4668C139.621 35.0957 139.553 34.7702 139.416 34.4902C139.286 34.2103 139.09 33.9954 138.83 33.8457C138.576 33.6895 138.254 33.6113 137.863 33.6113C137.492 33.6113 137.183 33.6895 136.936 33.8457C136.688 34.002 136.49 34.2233 136.34 34.5098C136.197 34.7897 136.092 35.1185 136.027 35.4961C135.962 35.8672 135.93 36.2676 135.93 36.6973V37.0684C135.93 37.4785 135.985 37.8529 136.096 38.1914C136.206 38.5299 136.369 38.8197 136.584 39.0605C136.799 39.3014 137.059 39.4902 137.365 39.627C137.671 39.7637 138.02 39.832 138.41 39.832C138.892 39.832 139.351 39.7409 139.787 39.5586C140.223 39.3698 140.601 39.0768 140.92 38.6797L142.346 40.3105C142.131 40.623 141.828 40.9258 141.438 41.2188C141.053 41.5052 140.591 41.7396 140.051 41.9219C139.51 42.1042 138.898 42.1953 138.215 42.1953ZM147.15 33.6504V42H144.104V31.4336H146.965L147.15 33.6504ZM146.76 36.3457L145.988 36.3652C145.988 35.623 146.076 34.9427 146.252 34.3242C146.434 33.6992 146.698 33.1556 147.043 32.6934C147.388 32.2311 147.814 31.873 148.322 31.6191C148.837 31.3652 149.429 31.2383 150.1 31.2383C150.568 31.2383 150.995 31.3099 151.379 31.4531C151.763 31.5898 152.092 31.8079 152.365 32.1074C152.645 32.4004 152.86 32.7845 153.01 33.2598C153.16 33.7285 153.234 34.2917 153.234 34.9492V42H150.188V35.3203C150.188 34.8516 150.129 34.4967 150.012 34.2559C149.901 34.0085 149.738 33.8392 149.523 33.748C149.309 33.6569 149.051 33.6113 148.752 33.6113C148.426 33.6113 148.137 33.6829 147.883 33.8262C147.635 33.9629 147.427 34.1549 147.258 34.4023C147.089 34.6497 146.962 34.9395 146.877 35.2715C146.799 35.6035 146.76 35.9616 146.76 36.3457ZM152.922 36.1895L151.955 36.2676C151.955 35.5514 152.04 34.8874 152.209 34.2754C152.378 33.6634 152.632 33.1328 152.971 32.6836C153.309 32.2279 153.729 31.873 154.23 31.6191C154.738 31.3652 155.327 31.2383 155.998 31.2383C156.493 31.2383 156.942 31.3099 157.346 31.4531C157.756 31.5964 158.107 31.8275 158.4 32.1465C158.7 32.4655 158.931 32.8854 159.094 33.4062C159.257 33.9206 159.338 34.5521 159.338 35.3008V42H156.271V35.3008C156.271 34.8385 156.213 34.487 156.096 34.2461C155.985 34.0052 155.822 33.8392 155.607 33.748C155.399 33.6569 155.148 33.6113 154.855 33.6113C154.53 33.6113 154.247 33.6797 154.006 33.8164C153.765 33.9466 153.563 34.1289 153.4 34.3633C153.238 34.5911 153.117 34.8613 153.039 35.1738C152.961 35.4863 152.922 35.8249 152.922 36.1895Z" fill="#CD6155"/>
</svg>
